<?xml version="1.0" encoding="utf-8"?>
<!-- Uploaded to: SVG Repo, www.svgrepo.com, Generator: SVG Repo Mixer Tools -->
<svg width="800px" height="800px" viewBox="0 0 1024 1024" class="icon"  version="1.1" xmlns="http://www.w3.org/2000/svg"><path d="M717.216 473.98c87.289 48.565 125.846 146.953 125.846 238.212 0 144.672-145.241 273.819-331.085 243.297-175.149 30.503-331.039-98.624-331.039-243.297 0-88.144 44.737-188.674 127.271-239.806 19.966-119.64 95.892-239.946 203.768-207.762 126.936-36.915 189.93 88.075 205.239 209.356z" fill="#0DB14B" /><path d="M717.216 473.979c-14.508-114.925-71.872-233.084-185.848-213.746 82.937 15.727 126.34 115.915 138.69 213.746 87.288 48.566 125.846 146.953 125.846 238.215 0 123.735-106.284 236.02-253.31 246.857 170.924 12.457 300.467-110.243 300.467-246.857 0.001-91.262-38.557-189.649-125.845-238.215z" fill="#030504" /><path d="M370.246 497.679c-0.817 0-1.641-0.066-2.473-0.204-8.137-1.356-13.628-9.049-12.271-17.187 11.863-71.093 42.721-131.884 80.528-158.659 6.753-4.776 16.056-3.172 20.818 3.551 4.768 6.731 3.179 16.056-3.551 20.817-31.078 22.007-57.896 76.65-68.338 139.206-1.216 7.307-7.546 12.476-14.713 12.476z" fill="#FFFFFF" /><path d="M514.023 310.465c-0.933 0-1.889-0.086-2.843-0.269-8.094-1.561-13.395-9.392-11.835-17.493 12.599-65.326 0.218-119.218 0.086-119.752-1.888-8.021 3.07-16.062 11.091-17.966 7.993-1.918 16.056 3.027 17.967 11.055 0.584 2.428 14.058 60.382 0.182 132.321-1.377 7.138-7.634 12.104-14.648 12.104z" fill="#152B3C" /><path d="M387.289 86.981c5.001-5.077 58.949-0.785 95.358 35.092 9.199 9.035 20.842 21.093 31.969 33.582 15.758-28.433 40.935-55.703 72.758-72.065 64.691-33.207 139.704-16.096 144.338-7.123C701.1 188.834 587.853 214.984 532.069 219.335c-36.352 15.09-80.85-10.586-108.253-37.547-36.404-35.853-41.528-89.728-36.527-94.807z" fill="#2577FF" /><path d="M708.304 67.293c-38.595 93.56-140.077 116.558-191.951 120.603-36.35 15.092-80.849-10.586-108.255-37.547-5.872-5.78-10.849-12.054-15.183-18.493 5.815 16.518 15.553 34.816 30.901 49.933 27.406 26.961 71.904 52.638 108.255 37.547 55.784-4.35 169.03-30.501 199.643-142.868-1.482-2.868-10.195-6.552-23.41-9.175z" fill="#030504" /></svg>